/vscmnt/brussel_pixiu_data/_data_brussel/112/vsc11236/PredSimResults/SUBJ04_Dhondt2024_3seg/SUBJ04_Dhondt2024_3seg_12572199.mot
version=1
nRows=4
nColumns=124
inDegrees=yes
endheader
                time	         pelvis_tilt	         pelvis_list	     pelvis_rotation	           pelvis_tx	           pelvis_ty	           pelvis_tz	       hip_flexion_r	     hip_adduction_r	      hip_rotation_r	        knee_angle_r	       ankle_angle_r	    subtalar_angle_r	         mtp_angle_r	       hip_flexion_l	     hip_adduction_l	      hip_rotation_l	        knee_angle_l	       ankle_angle_l	    subtalar_angle_l	         mtp_angle_l	    lumbar_extension	      lumbar_bending	     lumbar_rotation	          arm_flex_r	           arm_add_r	           arm_rot_r	        elbow_flex_r	          arm_flex_l	           arm_add_l	           arm_rot_l	        elbow_flex_l	glut_med1_r/activation	glut_med2_r/activation	glut_med3_r/activation	glut_min1_r/activation	glut_min2_r/activation	glut_min3_r/activation	semimem_r/activation	semiten_r/activation	bifemlh_r/activation	bifemsh_r/activation	    sar_r/activation	add_long_r/activation	add_brev_r/activation	add_mag1_r/activation	add_mag2_r/activation	add_mag3_r/activation	    tfl_r/activation	   pect_r/activation	   grac_r/activation	glut_max1_r/activation	glut_max2_r/activation	glut_max3_r/activation	iliacus_r/activation	  psoas_r/activation	quad_fem_r/activation	    gem_r/activation	   peri_r/activation	rect_fem_r/activation	vas_med_r/activation	vas_int_r/activation	vas_lat_r/activation	med_gas_r/activation	lat_gas_r/activation	 soleus_r/activation	tib_post_r/activation	flex_dig_r/activation	flex_hal_r/activation	tib_ant_r/activation	per_brev_r/activation	per_long_r/activation	per_tert_r/activation	ext_dig_r/activation	ext_hal_r/activation	glut_med1_l/activation	glut_med2_l/activation	glut_med3_l/activation	glut_min1_l/activation	glut_min2_l/activation	glut_min3_l/activation	semimem_l/activation	semiten_l/activation	bifemlh_l/activation	bifemsh_l/activation	    sar_l/activation	add_long_l/activation	add_brev_l/activation	add_mag1_l/activation	add_mag2_l/activation	add_mag3_l/activation	    tfl_l/activation	   pect_l/activation	   grac_l/activation	glut_max1_l/activation	glut_max2_l/activation	glut_max3_l/activation	iliacus_l/activation	  psoas_l/activation	quad_fem_l/activation	    gem_l/activation	   peri_l/activation	rect_fem_l/activation	vas_med_l/activation	vas_int_l/activation	vas_lat_l/activation	med_gas_l/activation	lat_gas_l/activation	 soleus_l/activation	tib_post_l/activation	flex_dig_l/activation	flex_hal_l/activation	tib_ant_l/activation	per_brev_l/activation	per_long_l/activation	per_tert_l/activation	ext_dig_l/activation	ext_hal_l/activation	 ercspn_r/activation	 ercspn_l/activation	 intobl_r/activation	 intobl_l/activation	 extobl_r/activation	 extobl_l/activation	
          1.24384862	         -2.92944313	          0.06781984	          1.91934665	          1.16921771	          0.87348454	         -0.00072364	         28.30975304	          3.45965101	          7.42177089	        -12.31903504	          5.14172881	         -2.55600443	          0.19481908	        -13.99917307	          3.57314673	         13.20106402	         -7.03374402	          9.54960495	          6.24521045	         11.92408395	         -4.20862346	         -1.34496265	         -0.92737934	         -3.16523461	        -13.46264868	         15.97765964	         21.25673246	          2.63093899	        -13.50181094	         19.38199330	         41.02974529	          0.01564270	          0.01001118	          0.01000060	          0.01457696	          0.01001681	          0.01000162	          0.08522902	          0.02120679	          0.01207337	          0.01000042	          0.01203108	          0.09523313	          0.13721217	          0.11267323	          0.12560612	          0.07131940	          0.01000097	          0.02411651	          0.06941957	          0.01047727	          0.01207280	          0.02936312	          0.02122366	          0.01888014	          0.01534875	          0.01000145	          0.01000029	          0.01000013	          0.04740553	          0.04990779	          0.04014674	          0.01000019	          0.01000032	          0.01000027	          0.01000030	          0.01000100	          0.01000138	          0.22223954	          0.13793579	          0.09405721	          0.12187520	          0.31289804	          0.03760227	          0.37106864	          0.19521443	          0.09300270	          0.34339807	          0.35120947	          0.22013005	          0.01086309	          0.01000163	          0.01000112	          0.04753821	          0.11726248	          0.01000013	          0.01000018	          0.01000050	          0.01000172	          0.01000096	          0.34621080	          0.01000081	          0.01000076	          0.02773074	          0.01329563	          0.01000083	          0.22792437	          0.34145120	          0.01000025	          0.01000592	          0.07942579	          0.18134085	          0.01000021	          0.01000025	          0.01000022	          0.37393797	          0.40206748	          0.34069350	          0.23483824	          0.26024636	          0.31430646	          0.01338401	          0.01449331	          0.14026207	          0.01209087	          0.01444688	          0.01353704	          0.01457588	          0.01000000	          0.05064625	          0.01000006	          0.06729909	          0.01000013	
          1.25628711	         -2.92999580	         -0.14857807	          2.06655157	          1.18295986	          0.87306432	         -0.00059129	         27.54741860	          3.89909995	          7.59525015	        -11.63241355	          4.28936975	         -2.86475989	          0.20769730	        -14.16175541	          3.37934488	         12.90857311	         -8.36550100	          9.12462424	          6.66862076	         12.93422358	         -4.09202910	         -0.95106846	         -0.97748234	         -3.77904359	        -13.46953425	         15.69486714	         20.23542182	          2.19718072	        -13.51785731	         19.38755829	         43.05463418	          0.01295671	          0.01000054	          0.01000009	          0.01207416	          0.01207285	          0.01000066	          0.07059449	          0.01756546	          0.01000032	          0.01000009	          0.01000020	          0.07888091	          0.13989023	          0.12528801	          0.10808793	          0.05907346	          0.01000032	          0.02303857	          0.05750044	          0.01000020	          0.01000015	          0.05657249	          0.01757945	          0.01563830	          0.08772458	          0.01000053	          0.01000037	          0.01207336	          0.05701620	          0.04135998	          0.04760409	          0.01000001	          0.01000003	          0.01000000	          0.01000006	          0.01000034	          0.01000025	          0.23395176	          0.14477036	          0.09551844	          0.15068646	          0.33935478	          0.05681139	          0.39738516	          0.16169407	          0.07703315	          0.28443350	          0.29870931	          0.18233149	          0.01000104	          0.01000026	          0.01000028	          0.03937540	          0.09713450	          0.01000025	          0.01000029	          0.01000083	          0.01000233	          0.01000090	          0.33519021	          0.01000098	          0.01000195	          0.02297066	          0.01755393	          0.01008973	          0.20951774	          0.28863183	          0.01455061	          0.01762718	          0.06578756	          0.18826472	          0.01000580	          0.01000732	          0.01000473	          0.34248622	          0.36897124	          0.32539701	          0.22692787	          0.25862953	          0.30671649	          0.01108584	          0.01200475	          0.13654038	          0.01001477	          0.01196620	          0.01121263	          0.01207306	          0.01000008	          0.04194975	          0.01457591	          0.05574310	          0.01000014	
          1.26872560	         -2.92711722	         -0.37871149	          2.20411568	          1.19701762	          0.87270925	         -0.00046570	         26.74904215	          4.30279189	          7.79750243	        -11.55259102	          3.20402675	         -3.15792938	          0.21695450	        -14.26330595	          3.17534300	         12.60483067	         -9.81798571	          8.55078746	          7.09728193	         14.00821454	         -3.95604833	         -0.53555913	         -1.02185556	         -4.40402328	        -13.48221370	         15.55104453	         19.19869254	          1.69681378	        -13.53014333	         19.37760067	         45.04789659	          0.01073192	          0.01000017	          0.01700780	          0.01000096	          0.01000028	          0.01000065	          0.05847269	          0.05692945	          0.03442051	          0.02124709	          0.01207700	          0.06533628	          0.11586965	          0.10377497	          0.08952830	          0.04892998	          0.01000070	          0.01908329	          0.05658244	          0.01000340	          0.01207324	          0.04685845	          0.01457463	          0.01457540	          0.07936172	          0.01781518	          0.01000491	          0.01000027	          0.04722593	          0.03425805	          0.03942997	          0.01457678	          0.01660776	          0.01457589	          0.01278552	          0.01207554	          0.01457554	          0.19377974	          0.11991202	          0.09381035	          0.12481202	          0.35211010	          0.04705636	          0.36283975	          0.13392946	          0.06380573	          0.27214419	          0.24741802	          0.15102324	          0.01128609	          0.01000281	          0.01000127	          0.03261425	          0.08045586	          0.01000084	          0.01000074	          0.01000149	          0.01000580	          0.01000188	          0.27763513	          0.01001466	          0.01000315	          0.01902666	          0.01454013	          0.01000121	          0.19495324	          0.25945997	          0.01205220	          0.01460075	          0.05449114	          0.20529652	          0.01000032	          0.01000038	          0.01000031	          0.30898733	          0.33458980	          0.30502206	          0.21324965	          0.23600273	          0.29206029	          0.01000002	          0.01000129	          0.14394936	          0.01000014	          0.01000004	          0.01000018	          0.01000001	          0.01000264	          0.03542193	          0.01207308	          0.04617140	          0.01759759	
          1.28116408	         -2.92170308	         -0.62649120	          2.32753412	          1.21129763	          0.87244201	         -0.00034109	         25.94212043	          4.66588384	          8.01511837	        -11.66413501	          1.97821204	         -3.44265040	          0.21671583	        -14.28497123	          2.95775004	         12.29751112	        -11.40508984	          7.81209275	          7.53416968	         15.13466587	         -3.80851301	         -0.09539670	         -1.05826993	         -5.01766604	        -13.50046962	         15.56960202	         18.13500990	          1.14287353	        -13.53718429	         19.34934314	         47.00153621	          0.17436573	          0.17927009	          0.18527444	          0.08581165	          0.01000465	          0.01000079	          0.04843232	          0.04715428	          0.03110832	          0.01759878	          0.01000368	          0.05411738	          0.09597366	          0.08595593	          0.07415575	          0.05959991	          0.01000044	          0.01580697	          0.04686678	          0.12917379	          0.01000040	          0.03966643	          0.01207241	          0.01207278	          0.06573452	          0.01475638	          0.01000083	          0.01000019	          0.07728491	          0.02837629	          0.06232259	          0.01207379	          0.01375605	          0.01207306	          0.01059012	          0.01000211	          0.01207283	          0.29901516	          0.17343822	          0.09376704	          0.32382376	          0.41877152	          0.17049074	          0.38137705	          0.11093232	          0.05284960	          0.37072180	          0.20493405	          0.12509093	          0.01000110	          0.01000016	          0.01000017	          0.02701405	          0.06664096	          0.01000005	          0.01000005	          0.01000016	          0.01000053	          0.01000029	          0.22996237	          0.01000028	          0.01000030	          0.01575999	          0.01208509	          0.01000071	          0.16874761	          0.24943919	          0.01000044	          0.01209413	          0.04513443	          0.19397766	          0.01000029	          0.01000033	          0.01000024	          0.25593087	          0.28014527	          0.27880979	          0.19575644	          0.19547892	          0.24191099	          0.01000004	          0.01000029	          0.15139785	          0.01000015	          0.01000005	          0.01000024	          0.02125201	          0.01300568	          0.02933965	          0.01000001	          0.03824327	          0.01457590	
